<?xml version="1.0" standalone="no"?>
<!DOCTYPE svg PUBLIC "-//W3C//DTD SVG 20010904//EN"
 "http://www.w3.org/TR/2001/REC-SVG-20010904/DTD/svg10.dtd">
<svg version="1.0" xmlns="http://www.w3.org/2000/svg"
 width="150.000000pt" height="150.000000pt" viewBox="0 0 150.000000 150.000000"
 preserveAspectRatio="xMidYMid meet">
<metadata>
Created by potrace 1.11, written by Peter Selinger 2001-2013
</metadata>
<g transform="translate(0.000000,150.000000) scale(0.100000,-0.100000)"
fill="#000000" stroke="none">
<path d="M636 1459 c-56 -17 -166 -83 -166 -99 0 -4 13 -13 30 -20 62 -26 88
-115 56 -192 -18 -42 -84 -111 -128 -134 -67 -35 -136 -45 -203 -30 -11 2 -23
5 -26 5 -4 1 -23 17 -43 37 l-35 35 -26 -39 c-35 -53 -48 -135 -28 -185 41
-102 252 -199 485 -224 137 -14 389 -8 478 12 161 36 171 39 251 78 218 105
221 257 8 427 -24 19 -67 56 -95 82 -47 44 -53 47 -83 38 -83 -23 -215 17
-252 77 -27 43 -19 77 23 103 l31 18 -44 13 c-70 19 -167 19 -233 -2z m539
-336 c54 -35 101 -94 115 -142 32 -117 -18 -194 -129 -197 -121 -4 -241 112
-241 233 0 60 16 91 60 121 48 33 131 26 195 -15z m-457 -171 c13 -10 25 -33
29 -55 19 -120 -111 -260 -203 -218 -68 30 -53 162 27 238 56 53 107 65 147
35z"/>
<path d="M897 554 c-3 -3 -75 -6 -160 -6 l-155 1 -7 -27 c-3 -14 -38 -95 -76
-179 -38 -84 -69 -163 -69 -174 0 -92 159 -161 351 -153 126 5 220 40 264 99
34 44 32 55 -50 239 -35 78 -67 154 -70 169 -8 28 -18 40 -28 31z"/>
</g>
</svg>
